<svg xmlns="http://www.w3.org/2000/svg" width="545" height="490" viewBox="0 0 218 196" font-family="Arial, sans-serif">
  <defs>
    <marker id="ah" viewBox="0 0 8 6" refX="8" refY="3"
      markerWidth="4" markerHeight="3" orient="auto">
      <path d="M0.5,0.5 L7,3 L0.5,5.5" fill="none" stroke="#94A3B8"
        stroke-width="1.2" stroke-linejoin="round" stroke-linecap="round"/>
    </marker>
    <filter id="shadow" x="-6%" y="-8%" width="112%" height="128%">
      <feDropShadow dx="0" dy="0.5" stdDeviation="0.8"
        flood-color="#000" flood-opacity="0.05"/>
    </filter>
  </defs>
  <rect width="218" height="196" fill="#F8F9FB" rx="3"/>
  <text x="109" y="11" text-anchor="middle" font-size="6" font-weight="700" fill="#1E293B">AgiCards Architecture</text>
  <rect x="34" y="16" width="150" height="10" rx="3" fill="#fff" stroke="#E2E5EA" stroke-width="0.4"/>
  <rect x="39" y="18.5" width="5" height="5" rx="2.5" fill="#fff" stroke="#E2E5EA" stroke-width="0.4"/>
  <text x="47" y="22.5" font-size="3.5" fill="#1E293B">Actor</text>
  <rect x="79" y="18.5" width="5" height="5" rx="1.5" fill="#fff" stroke="#E2E5EA" stroke-width="0.4"/>
  <rect x="80" y="19.5" width="0.8" height="3" rx="0.4" fill="#3B82F6"/>
  <text x="87" y="22.5" font-size="3.5" fill="#1E293B">Protocol</text>
  <rect x="127" y="18.5" width="5" height="5" rx="1.5" fill="#fff" stroke="#E2E5EA" stroke-width="0.4"/>
  <rect x="128" y="19.5" width="0.8" height="3" rx="0.4" fill="#F59E0B"/>
  <text x="135" y="22.5" font-size="3.5" fill="#1E293B">External</text>
  <rect x="20.0" y="146.0" width="178.0" height="40.0" rx="5" fill="#EDEEF2"/>
  <text x="195.0" y="151.0" text-anchor="end" font-size="3.5" fill="#94A3B8" font-weight="500">0G Infrastructure</text>
  <path d="M66.7,46.0 C66.7,70.0 81.7,70.0 81.7,94.0" fill="none" stroke="#94A3B8" stroke-width="0.5" marker-end="url(#ah)"/>
  <path d="M81.7,94.0 C81.7,70.0 66.7,70.0 66.7,46.0" fill="none" stroke="#94A3B8" stroke-width="0.5" marker-end="url(#ah)"/>
  <path d="M81.7,114.0 C81.7,135.0 64.0,135.0 64.0,156.0" fill="none" stroke="#94A3B8" stroke-width="0.5" marker-end="url(#ah)"/>
  <path d="M81.7,114.0 C81.7,135.0 154.0,135.0 154.0,156.0" fill="none" stroke="#94A3B8" stroke-width="0.5" marker-end="url(#ah)"/>
  <g filter="url(#shadow)">
    <rect x="36.9" y="32.0" width="59.6" height="14" rx="7" fill="#fff" stroke="#E2E5EA" stroke-width="0.5"/>
    <text x="66.7" y="40.8" text-anchor="middle" font-size="4.8" font-weight="600" fill="#1E293B">User</text>
  </g>
  <g filter="url(#shadow)">
    <rect x="33.3" y="94.0" width="96.8" height="20" rx="3" fill="#fff" stroke="#E2E5EA" stroke-width="0.5"/>
    <rect x="36.3" y="97.0" width="1.4" height="14" rx="0.6" fill="#3B82F6"/>
    <text x="81.7" y="103.5" text-anchor="middle" font-size="4.8" font-weight="600" fill="#1E293B">AgiCardsRegistry</text>
    <text x="81.7" y="108.5" text-anchor="middle" font-size="3.5" fill="#64748B">Registry + Escrow</text>
  </g>
  <g filter="url(#shadow)">
    <rect x="30.0" y="156.0" width="68.0" height="20" rx="3" fill="#fff" stroke="#E2E5EA" stroke-width="0.5"/>
    <rect x="33.0" y="159.0" width="1.4" height="14" rx="0.6" fill="#F59E0B"/>
    <text x="64.0" y="165.5" text-anchor="middle" font-size="4.8" font-weight="600" fill="#1E293B">0G Storage</text>
    <text x="64.0" y="170.5" text-anchor="middle" font-size="3.5" fill="#64748B">proof roots</text>
  </g>
  <g filter="url(#shadow)">
    <rect x="120.0" y="156.0" width="68.0" height="20" rx="3" fill="#fff" stroke="#E2E5EA" stroke-width="0.5"/>
    <rect x="123.0" y="159.0" width="1.4" height="14" rx="0.6" fill="#F59E0B"/>
    <text x="154.0" y="165.5" text-anchor="middle" font-size="4.8" font-weight="600" fill="#1E293B">0G Compute</text>
    <text x="154.0" y="170.5" text-anchor="middle" font-size="3.5" fill="#64748B">policy eval</text>
  </g>
  <rect x="49.4" y="65.0" width="49.6" height="6.0" rx="1" fill="#F8F9FB"/>
  <text x="74.2" y="70.0" font-size="4" fill="#1E293B" font-weight="500" text-anchor="middle">fund + request card</text>
  <rect x="57.8" y="57.0" width="32.8" height="6.0" rx="1" fill="#F8F9FB"/>
  <text x="74.2" y="62.0" font-size="4" fill="#1E293B" font-weight="500" text-anchor="middle">withdraw ETH</text>
  <rect x="50.4" y="130.0" width="44.8" height="6.0" rx="1" fill="#F8F9FB"/>
  <text x="72.8" y="135.0" font-size="4" fill="#1E293B" font-weight="500" text-anchor="middle">store proof roots</text>
  <rect x="101.4" y="130.0" width="32.8" height="6.0" rx="1" fill="#F8F9FB"/>
  <text x="117.8" y="135.0" font-size="4" fill="#1E293B" font-weight="500" text-anchor="middle">policy roots</text>
</svg>